<svg width="48" height="48" viewBox="0 0 48 48" fill="none" xmlns="http://www.w3.org/2000/svg">
<path d="M24 26C25.9333 26 27.5833 25.3167 28.95 23.95C30.3167 22.5833 31 20.9333 31 19C31 17.0667 30.3167 15.4167 28.95 14.05C27.5833 12.6833 25.9333 12 24 12C22.0667 12 20.4167 12.6833 19.05 14.05C17.6833 15.4167 17 17.0667 17 19C17 20.9333 17.6833 22.5833 19.05 23.95C20.4167 25.3167 22.0667 26 24 26ZM10 42C8.9 42 7.958 41.608 7.174 40.824C6.39 40.04 5.99867 39.0987 6 38V10C6 8.9 6.392 7.958 7.176 7.174C7.96 6.39 8.90134 5.99867 10 6H38C39.1 6 40.042 6.392 40.826 7.176C41.61 7.96 42.0013 8.90134 42 10V38C42 39.1 41.608 40.042 40.824 40.826C40.04 41.61 39.0987 42.0013 38 42H10ZM10 38H38V35.7C36.2 33.9333 34.108 32.542 31.724 31.526C29.34 30.51 26.7653 30.0013 24 30C21.2333 30 18.658 30.5087 16.274 31.526C13.89 32.5433 11.7987 33.9347 10 35.7V38Z" fill="#418ECB"/>
</svg>
