<svg width="22" height="24" viewBox="0 0 22 24" fill="none" xmlns="http://www.w3.org/2000/svg">
<path d="M17 8C17 6.4087 16.3679 4.88258 15.2426 3.75736C14.1174 2.63214 12.5913 2 11 2C9.4087 2 7.88258 2.63214 6.75736 3.75736C5.63214 4.88258 5 6.4087 5 8C5 15 2 17 2 17H20C20 17 17 15 17 8Z" stroke="black" stroke-width="2" stroke-linecap="round" stroke-linejoin="round"/>
<path d="M13 21C12.7968 21.3042 12.505 21.5566 12.154 21.7321C11.803 21.9076 11.4051 22 11 22C10.5949 22 10.197 21.9076 9.84598 21.7321C9.49498 21.5566 9.20325 21.3042 9 21" stroke="black" stroke-width="2" stroke-linecap="round" stroke-linejoin="round"/>
</svg>
