<svg width="48" height="48" viewBox="0 0 48 48" fill="#418ECB" xmlns="http://www.w3.org/2000/svg">
<path d="M10 42C8.33333 42 6.91667 41.4167 5.75 40.25C4.58333 39.0833 4 37.6667 4 36C4 34.3333 4.58333 32.9167 5.75 31.75C6.91667 30.5833 8.33333 30 10 30H38C39.6667 30 41.0833 30.5833 42.25 31.75C43.4167 32.9167 44 34.3333 44 36C44 37.6667 43.4167 39.0833 42.25 40.25C41.0833 41.4167 39.6667 42 38 42H10ZM10 38H38C38.5667 38 39.042 37.808 39.426 37.424C39.81 37.04 40.0013 36.5653 40 36C40 35.4333 39.808 34.958 39.424 34.574C39.04 34.19 38.5653 33.9987 38 34H10C9.43333 34 8.958 34.192 8.574 34.576C8.19 34.96 7.99867 35.4347 8 36C8 36.5667 8.192 37.042 8.576 37.426C8.96 37.81 9.43467 38.0013 10 38ZM20 26C19.4333 26 18.958 25.808 18.574 25.424C18.19 25.04 17.9987 24.5653 18 24V8.00001C18 7.43334 18.192 6.95801 18.576 6.57401C18.96 6.19001 19.4347 5.99867 20 6.00001H36C36.5667 6.00001 37.042 6.19201 37.426 6.57601C37.81 6.96001 38.0013 7.43467 38 8.00001V24C38 24.5667 37.808 25.042 37.424 25.426C37.04 25.81 36.5653 26.0013 36 26H20ZM4 21.9V18.05H13.85V21.9H4ZM24 16H32V12.05H24V16ZM8 16H13.85V12.05H8V16Z"/>
</svg>
