<svg width="32" height="32" viewBox="0 0 32 32" fill="none" xmlns="http://www.w3.org/2000/svg">
<path fill-rule="evenodd" clip-rule="evenodd" d="M11 24C11 23.7348 11.1054 23.4804 11.2929 23.2929C11.4804 23.1054 11.7348 23 12 23H20C20.2652 23 20.5196 23.1054 20.7071 23.2929C20.8946 23.4804 21 23.7348 21 24C21 24.2652 20.8946 24.5196 20.7071 24.7071C20.5196 24.8946 20.2652 25 20 25H12C11.7348 25 11.4804 24.8946 11.2929 24.7071C11.1054 24.5196 11 24.2652 11 24Z" fill="#418ECB"/>
<path fill-rule="evenodd" clip-rule="evenodd" d="M11.6001 1.66663H20.4001C20.6934 1.66663 20.9187 1.66663 21.1147 1.68796C21.9846 1.78115 22.7926 2.18232 23.3926 2.81904C23.9927 3.45575 24.3453 4.28604 24.3867 5.15996C25.1691 5.39585 25.8562 5.87452 26.3485 6.52674C26.8408 7.17895 27.1129 7.97088 27.1254 8.78796C27.9267 9.02796 28.6187 9.40796 29.1841 10.0186C30.0534 10.9586 30.3227 12.1146 30.3334 13.4666C30.3427 14.7666 30.1121 16.4093 29.8241 18.448L29.2374 22.6C29.0134 24.1946 28.8307 25.4906 28.5467 26.5053C28.2494 27.568 27.8107 28.4413 27.0001 29.1133C26.1947 29.78 25.2401 30.0666 24.1121 30.2026C23.0201 30.3333 21.6467 30.3333 19.9387 30.3333H12.0614C10.3521 30.3333 8.97872 30.3333 7.88806 30.2026C6.75872 30.0666 5.80406 29.78 4.99872 29.1133C4.18806 28.4413 3.74939 27.5666 3.45206 26.5053C3.16806 25.4906 2.98539 24.1946 2.76006 22.5986L2.17472 18.448C1.88806 16.408 1.65472 14.7666 1.66539 13.4666C1.67606 12.1146 1.94539 10.9586 2.81472 10.0186C3.38006 9.40796 4.07072 9.02929 4.87206 8.78796C4.88489 7.97094 5.1573 7.17918 5.64987 6.52722C6.14244 5.87525 6.82964 5.39688 7.61206 5.16129C7.65322 4.28714 8.00567 3.45653 8.60574 2.81954C9.20581 2.18255 10.0139 1.78119 10.8841 1.68796C11.0801 1.66663 11.3054 1.66663 11.5974 1.66663H11.6001ZM6.91739 8.43729C8.15206 8.33329 9.66406 8.33329 11.4867 8.33329H20.5107C22.3321 8.33329 23.8441 8.33329 25.0801 8.43729C24.9877 8.02897 24.7592 7.66422 24.4321 7.403C24.105 7.14178 23.6987 6.99964 23.2801 6.99996H8.71872C7.82672 6.99996 7.10272 7.62663 6.92006 8.43729H6.91739ZM20.9001 3.67729C21.6334 3.75463 22.2134 4.30129 22.3561 4.99996H9.64272C9.71346 4.6533 9.89269 4.33815 10.1544 4.10012C10.4162 3.86209 10.7469 3.71354 11.0987 3.67596C11.1734 3.66796 11.2801 3.66663 11.6547 3.66663H20.3454C20.7187 3.66663 20.8254 3.66796 20.9014 3.67596L20.9001 3.67729ZM4.28406 11.376C4.68806 10.94 5.29472 10.6506 6.47472 10.4933C7.67606 10.3333 9.28539 10.332 11.5627 10.332H20.4374C22.7147 10.332 24.3241 10.3346 25.5254 10.4933C26.7054 10.6506 27.3121 10.94 27.7161 11.376C28.1107 11.8026 28.3254 12.3826 28.3334 13.4813C28.3414 14.6146 28.1334 16.108 27.8321 18.2493L27.2681 22.2493C27.0307 23.9306 26.8654 25.0933 26.6214 25.9653C26.3854 26.8053 26.1094 27.252 25.7241 27.5706C25.3334 27.896 24.8081 28.104 23.8734 28.216C22.9147 28.3306 21.6614 28.332 19.8734 28.332H12.1267C10.3374 28.332 9.08539 28.3306 8.12672 28.216C7.19339 28.1026 6.66672 27.896 6.27606 27.572C5.89072 27.252 5.61472 26.804 5.37872 25.9653C5.13472 25.0933 4.96939 23.9306 4.73206 22.2493L4.16806 18.2493C3.86672 16.1093 3.65872 14.6146 3.66672 13.4813C3.67472 12.3826 3.88939 11.8013 4.28406 11.376Z" fill="#418ECB"/>
</svg>
