<svg width="32" height="32" viewBox="0 0 32 32" fill="none" xmlns="http://www.w3.org/2000/svg">
<path d="M17.3333 2.70667V5.4C23.1867 6.12 27.3333 11.44 26.6133 17.2933C26 22.1467 22.1867 26 17.3333 26.5733V29.24C24.6667 28.5067 30 22 29.2667 14.6667C28.6667 8.33333 23.64 3.33333 17.3333 2.70667ZM14.6667 2.74666C12.0667 3 9.58667 4 7.56 5.68L9.46667 7.65333C10.96 6.45333 12.76 5.68 14.6667 5.41333V2.74666ZM5.68 7.56C4.01288 9.58312 2.98694 12.0574 2.73334 14.6667H5.4C5.65334 12.7733 6.4 10.9733 7.58667 9.46666L5.68 7.56ZM2.74667 17.3333C3.01334 19.9467 4.04 22.4133 5.69334 24.44L7.58667 22.5333C6.40924 21.0261 5.65861 19.2301 5.41334 17.3333H2.74667ZM9.46667 24.4933L7.56 26.32C9.57971 28.0036 12.0524 29.052 14.6667 29.3333V26.6667C12.7699 26.4214 10.9739 25.6708 9.46667 24.4933ZM19.4533 10.6667L16 14.12L12.5467 10.6667L10.6667 12.5467L14.12 16L10.6667 19.4533L12.5467 21.3333L16 17.88L19.4533 21.3333L21.3333 19.4533L17.88 16L21.3333 12.5467L19.4533 10.6667Z" fill="#9C2422"/>
</svg>
