<svg width="32" height="32" viewBox="0 0 32 32" fill="none" xmlns="http://www.w3.org/2000/svg">
<path d="M28.523 23.813C28.005 23.303 21.728 20.875 20.589 20.417C19.456 19.967 19.004 18.72 19.004 18.72C19.004 18.72 18.494 19.002 18.494 18.21C18.494 17.417 19.004 18.72 19.514 15.662C19.514 15.662 20.929 15.265 20.648 11.982H20.308C20.308 11.982 21.158 8.472 20.308 7.284C19.455 6.096 19.121 5.304 17.248 4.736C15.378 4.169 16.058 4.282 14.7 4.34C13.34 4.397 12.208 5.133 12.208 5.528C12.208 5.528 11.358 5.585 11.02 5.925C10.68 6.265 10.114 7.849 10.114 8.245C10.114 8.641 10.397 11.305 10.68 11.869L10.343 11.979C10.06 15.263 11.475 15.661 11.475 15.661C11.985 18.719 12.495 17.416 12.495 18.209C12.495 19.001 11.985 18.719 11.985 18.719C11.985 18.719 11.532 19.965 10.4 20.416C9.268 20.869 2.984 23.303 2.473 23.812C1.963 24.332 2.02 26.708 2.02 26.708H14.056L14.934 23.248L14.154 22.468L15.497 21.123L16.84 22.467L16.06 23.247L16.938 26.707H28.974C28.974 26.707 29.037 24.329 28.521 23.81L28.523 23.813Z" fill="#418ECB"/>
</svg>
