<svg width="32" height="32" viewBox="0 0 32 32" fill="none" xmlns="http://www.w3.org/2000/svg">
<path d="M13.3333 2.66666H18.6667C19.3739 2.66666 20.0522 2.94761 20.5523 3.4477C21.0524 3.9478 21.3333 4.62608 21.3333 5.33332V7.99999H26.6667C27.3739 7.99999 28.0522 8.28094 28.5523 8.78104C29.0524 9.28114 29.3333 9.95941 29.3333 10.6667V25.3333C29.3333 26.0406 29.0524 26.7188 28.5523 27.2189C28.0522 27.719 27.3739 28 26.6667 28H5.33333C4.62609 28 3.94781 27.719 3.44771 27.2189C2.94762 26.7188 2.66666 26.0406 2.66666 25.3333V10.6667C2.66666 9.18666 3.85333 7.99999 5.33333 7.99999H10.6667V5.33332C10.6667 3.85332 11.8533 2.66666 13.3333 2.66666ZM18.6667 7.99999V5.33332H13.3333V7.99999H18.6667Z" fill="#0B8E00"/>
</svg>
