<svg width="32" height="32" viewBox="0 0 32 32" fill="none" xmlns="http://www.w3.org/2000/svg">
<path d="M24 24.6666C25.1067 24.6666 26 23.7733 26 22.6666C26 21.56 25.1067 20.6666 24 20.6666C22.8934 20.6666 22 21.56 22 22.6666C22 23.7733 22.8934 24.6666 24 24.6666ZM26 12.6666H22.6667V16H28.6134L26 12.6666ZM8.00004 24.6666C9.10671 24.6666 10 23.7733 10 22.6666C10 21.56 9.10671 20.6666 8.00004 20.6666C6.89337 20.6666 6.00004 21.56 6.00004 22.6666C6.00004 23.7733 6.89337 24.6666 8.00004 24.6666ZM26.6667 10.6666L30.6667 16V22.6666H28C28 24.88 26.2134 26.6666 24 26.6666C21.7867 26.6666 20 24.88 20 22.6666H12C12 24.88 10.2134 26.6666 8.00004 26.6666C5.78671 26.6666 4.00004 24.88 4.00004 22.6666H1.33337V7.99998C1.33337 6.51998 2.52004 5.33331 4.00004 5.33331H22.6667V10.6666H26.6667ZM4.00004 7.99998V20H5.01337C5.74671 19.1866 6.81337 18.6666 8.00004 18.6666C9.18671 18.6666 10.2534 19.1866 10.9867 20H20V7.99998H4.00004Z" fill="#418ECB"/>
</svg>
