<svg width="640" height="640" viewBox="0 0 640 640" fill="none" xmlns="http://www.w3.org/2000/svg">
<path d="M48 96C21.5 96 0 117.5 0 144V400C0 426.5 21.5 448 48 448H65.1C72.9 393.7 119.5 352 176 352C232.5 352 279.1 393.7 286.9 448H608C625.7 448 640 433.7 640 416C640 398.3 625.7 384 608 384H544V144C544 117.5 522.5 96 496 96H48ZM80 160C88.8 160 96 167.2 96 176V307.2C84.6 313.1 73.8 320.1 64 328.2V176C64 167.2 71.2 160 80 160ZM176 288C170.6 288 165.3 288.2 160 288.7V176C160 167.2 167.2 160 176 160C184.8 160 192 167.2 192 176V288.7C186.7 288.2 181.4 288 176 288ZM256 307.2V176C256 167.2 263.2 160 272 160C280.8 160 288 167.2 288 176V328.2C278.2 320.1 267.4 313 256 307.2ZM368 160C376.8 160 384 167.2 384 176V368C384 376.8 376.8 384 368 384C359.2 384 352 376.8 352 368V176C352 167.2 359.2 160 368 160ZM480 176V368C480 376.8 472.8 384 464 384C455.2 384 448 376.8 448 368V176C448 167.2 455.2 160 464 160C472.8 160 480 167.2 480 176ZM176 544C197.217 544 217.566 535.571 232.569 520.569C247.571 505.566 256 485.217 256 464C256 442.783 247.571 422.434 232.569 407.431C217.566 392.429 197.217 384 176 384C154.783 384 134.434 392.429 119.431 407.431C104.429 422.434 96 442.783 96 464C96 485.217 104.429 505.566 119.431 520.569C134.434 535.571 154.783 544 176 544ZM176 432C184.487 432 192.626 435.371 198.627 441.373C204.629 447.374 208 455.513 208 464C208 472.487 204.629 480.626 198.627 486.627C192.626 492.629 184.487 496 176 496C167.513 496 159.374 492.629 153.373 486.627C147.371 480.626 144 472.487 144 464C144 455.513 147.371 447.374 153.373 441.373C159.374 435.371 167.513 432 176 432Z" fill="#FF8761"/>
</svg>
