<svg width="32" height="32" viewBox="0 0 32 32" fill="none" xmlns="http://www.w3.org/2000/svg">
<path d="M17.4534 26.6666C17.6134 27.6266 17.9467 28.52 18.4134 29.3333H8.00004C6.52004 29.3333 5.33337 28.1466 5.33337 26.6666V5.33329C5.33337 4.62605 5.61433 3.94777 6.11442 3.44767C6.61452 2.94758 7.2928 2.66663 8.00004 2.66663H18.6667L26.6667 10.6666V17.4533C26.2267 17.3866 25.7867 17.3333 25.3334 17.3333C24.88 17.3333 24.44 17.3866 24 17.4533V12H17.3334V5.33329H8.00004V26.6666H17.4534ZM30.6667 22.6666L26.6667 19.3333V21.3333H21.3334V24H26.6667V26L30.6667 22.6666ZM24 24.6666L20 28L24 31.3333V29.3333H29.3334V26.6666H24V24.6666Z" fill="#418ECB"/>
</svg>
