<svg width="48" height="48" viewBox="0 0 48 48" fill="none" xmlns="http://www.w3.org/2000/svg">
<g clip-path="url(#clip0_860_695)">
<path d="M44.8 19.2V36.7999C44.8 37.2243 44.6315 37.6313 44.3314 37.9313C44.0313 38.2314 43.6244 38.3999 43.2 38.3999C42.7757 38.3999 42.3687 38.2314 42.0687 37.9313C41.7686 37.6313 41.6 37.2243 41.6 36.7999V30.4C41.6 29.1269 41.0943 27.906 40.1941 27.0058C39.294 26.1057 38.0731 25.6 36.8 25.5999H32V6.39995C32 5.55126 31.6629 4.73733 31.0628 4.13721C30.4627 3.53709 29.6487 3.19995 28.8 3.19995H9.60002C8.75133 3.19995 7.9374 3.53709 7.33728 4.13721C6.73717 4.73733 6.40002 5.55126 6.40002 6.39995V41.5999C6.40002 42.4486 6.73717 43.2626 7.33728 43.8627C7.9374 44.4628 8.75133 44.7999 9.60002 44.7999H28.8C29.6487 44.7999 30.4627 44.4628 31.0628 43.8627C31.6629 43.2626 32 42.4486 32 41.5999V28.7999H36.8C37.2244 28.7999 37.6313 28.9685 37.9314 29.2686C38.2315 29.5686 38.4 29.9756 38.4 30.4V36.7999C38.4 38.073 38.9057 39.2939 39.8059 40.1941C40.7061 41.0942 41.927 41.5999 43.2 41.5999C44.4731 41.5999 45.694 41.0942 46.5941 40.1941C47.4943 39.2939 48 38.073 48 36.7999V16C48 15.1513 47.6629 14.3373 47.0628 13.7372C46.4627 13.1371 45.6487 12.8 44.8 12.8V7.96795C44.7916 7.54917 44.6194 7.15038 44.3202 6.85721C44.0211 6.56404 43.6189 6.39987 43.2 6.39995C42.9772 6.40363 42.7575 6.45291 42.5544 6.54474C42.3514 6.63658 42.1693 6.76903 42.0194 6.93393C41.8695 7.09882 41.7549 7.29268 41.6828 7.50353C41.6107 7.71439 41.5825 7.93779 41.6 8.15995V16C41.6 16.6329 41.7877 17.2515 42.1393 17.7778C42.4909 18.304 42.9907 18.7142 43.5754 18.9564C44.1602 19.1986 44.8036 19.2619 45.4243 19.1385C46.0451 19.015 46.6152 18.7102 47.0628 18.2627C47.5103 17.8152 47.8151 17.245 47.9385 16.6242C48.062 16.0035 47.9986 15.3601 47.7564 14.7754C47.5142 14.1906 47.1041 13.6909 46.5779 13.3392C46.0516 12.9876 45.4329 12.8 44.8 12.8V19.2ZM28.8 20.7999C28.8 21.2243 28.6315 21.6313 28.3314 21.9313C28.0313 22.2314 27.6244 22.4 27.2 22.4H11.2C10.7757 22.4 10.3687 22.2314 10.0687 21.9313C9.7686 21.6313 9.60002 21.2243 9.60002 20.7999V11.2C9.60002 10.7756 9.7686 10.3686 10.0687 10.0686C10.3687 9.76852 10.7757 9.59995 11.2 9.59995H27.2C27.6244 9.59995 28.0313 9.76852 28.3314 10.0686C28.6315 10.3686 28.8 10.7756 28.8 11.2V20.7999Z" fill="#418ECB"/>
</g>
<defs>
<clipPath id="clip0_860_695">
<rect width="48" height="48" fill="white"/>
</clipPath>
</defs>
</svg>
