<svg width="32" height="32" viewBox="0 0 32 32" fill="none" xmlns="http://www.w3.org/2000/svg">
<path d="M15.9333 24C16.4 24 16.7946 23.8386 17.1173 23.516C17.44 23.1933 17.6008 22.7991 17.6 22.3333C17.6 21.8666 17.4391 21.472 17.1173 21.1493C16.7955 20.8266 16.4008 20.6657 15.9333 20.6666C15.4666 20.6666 15.0724 20.828 14.7506 21.1506C14.4288 21.4733 14.2675 21.8675 14.2666 22.3333C14.2666 22.8 14.428 23.1946 14.7506 23.5173C15.0733 23.84 15.4675 24.0008 15.9333 24ZM14.7333 18.8666H17.2C17.2 18.1333 17.2835 17.5555 17.4506 17.1333C17.6177 16.7111 18.0897 16.1333 18.8666 15.4C19.4444 14.8222 19.9 14.272 20.2333 13.7493C20.5666 13.2266 20.7333 12.5991 20.7333 11.8666C20.7333 10.6222 20.2777 9.66663 19.3666 8.99996C18.4555 8.33329 17.3777 7.99996 16.1333 7.99996C14.8666 7.99996 13.8386 8.33329 13.0493 8.99996C12.26 9.66663 11.7102 10.4666 11.4 11.4L13.6 12.2666C13.7111 11.8666 13.9613 11.4333 14.3506 10.9666C14.74 10.5 15.3342 10.2666 16.1333 10.2666C16.8444 10.2666 17.3777 10.4613 17.7333 10.8506C18.0888 11.24 18.2666 11.6675 18.2666 12.1333C18.2666 12.5777 18.1333 12.9946 17.8666 13.384C17.6 13.7733 17.2666 14.1342 16.8666 14.4666C15.8888 15.3333 15.2888 15.9888 15.0666 16.4333C14.8444 16.8777 14.7333 17.6888 14.7333 18.8666ZM16 29.3333C14.1555 29.3333 12.4222 28.9831 10.8 28.2826C9.17774 27.5822 7.76663 26.6324 6.56663 25.4333C5.36663 24.2333 4.41685 22.8222 3.71729 21.2C3.01774 19.5777 2.66751 17.8444 2.66663 16C2.66663 14.1555 3.01685 12.4222 3.71729 10.8C4.41774 9.17774 5.36752 7.76663 6.56663 6.56663C7.76663 5.36663 9.17774 4.41685 10.8 3.71729C12.4222 3.01774 14.1555 2.66751 16 2.66663C17.8444 2.66663 19.5777 3.01685 21.2 3.71729C22.8222 4.41774 24.2333 5.36752 25.4333 6.56663C26.6333 7.76663 27.5835 9.17774 28.284 10.8C28.9844 12.4222 29.3342 14.1555 29.3333 16C29.3333 17.8444 28.9831 19.5777 28.2826 21.2C27.5822 22.8222 26.6324 24.2333 25.4333 25.4333C24.2333 26.6333 22.8222 27.5835 21.2 28.284C19.5777 28.9844 17.8444 29.3342 16 29.3333Z" fill="#418ECB"/>
</svg>
