<svg width="32" height="32" viewBox="0 0 32 32" fill="none" xmlns="http://www.w3.org/2000/svg">
<path d="M16 2.66663C15.7333 2.66663 15.4667 2.79996 15.2 2.93329L4.66667 8.79996C4.26667 9.06663 4 9.46663 4 9.99996V22C4 22.5333 4.26667 22.9333 4.66667 23.2L15.2 29.0666C15.4667 29.2 15.7333 29.3333 16 29.3333C16.2667 29.3333 16.5333 29.2 16.8 29.0666L18 28.4C17.6 27.6 17.4667 26.6666 17.3333 25.7333V16.8L25.3333 12.2666V17.3333C26.2667 17.3333 27.2 17.4666 28 17.7333V9.99996C28 9.46663 27.7333 9.06663 27.3333 8.79996L16.8 2.93329C16.5333 2.79996 16.2667 2.66663 16 2.66663ZM16 5.59996L24 9.99996L21.3333 11.4666L13.4667 6.93329L16 5.59996ZM10.8 8.39996L18.6667 13.0666L16 14.5333L8 9.99996L10.8 8.39996ZM6.66667 12.2666L14.6667 16.8V25.7333L6.66667 21.2V12.2666ZM28.4 21.0666L23.6 25.8666L21.4667 23.7333L20 25.3333L23.7333 29.3333L30.1333 22.9333L28.4 21.0666Z" fill="#0B8E00"/>
</svg>
