<svg width="32" height="32" viewBox="0 0 32 32" fill="none" xmlns="http://www.w3.org/2000/svg">
<path d="M8.16667 4C7.0616 4 6.00179 4.43899 5.22039 5.22039C4.43899 6.00179 4 7.0616 4 8.16667V23.8333C4 24.9384 4.43899 25.9982 5.22039 26.7796C6.00179 27.561 7.0616 28 8.16667 28H16.0293C15.696 27.48 15.4167 26.9213 15.2 26.3333H8.16667C7.50363 26.3333 6.86774 26.0699 6.3989 25.6011C5.93006 25.1323 5.66667 24.4964 5.66667 23.8333V8.16667C5.66667 7.50363 5.93006 6.86774 6.3989 6.3989C6.86774 5.93006 7.50363 5.66667 8.16667 5.66667H23.8333C24.4964 5.66667 25.1323 5.93006 25.6011 6.3989C26.0699 6.86774 26.3333 7.50363 26.3333 8.16667V15.2C26.9213 15.4167 27.48 15.696 28 16.0293V8.16667C28 7.0616 27.561 6.00179 26.7796 5.22039C25.9982 4.43899 24.9384 4 23.8333 4H8.16667ZM23.3333 14.6667C23.55 14.6667 23.7653 14.6747 23.978 14.69C24.0066 14.5677 24.0073 14.4406 23.9798 14.318C23.9524 14.1955 23.8976 14.0807 23.8196 13.9823C23.7416 13.8839 23.6423 13.8044 23.5293 13.7497C23.4162 13.6951 23.2922 13.6667 23.1667 13.6667H16.1667C15.9457 13.6667 15.7337 13.7545 15.5774 13.9107C15.4211 14.067 15.3333 14.279 15.3333 14.5C15.3333 14.721 15.4211 14.933 15.5774 15.0893C15.7337 15.2455 15.9457 15.3333 16.1667 15.3333H19.994C21.0519 14.8918 22.187 14.6652 23.3333 14.6667ZM8 8.83333C8 8.37333 8.37333 8 8.83333 8H23.1667C23.3877 8 23.5996 8.0878 23.7559 8.24408C23.9122 8.40036 24 8.61232 24 8.83333C24 9.05435 23.9122 9.26631 23.7559 9.42259C23.5996 9.57887 23.3877 9.66667 23.1667 9.66667H8.83333C8.37333 9.66667 8 9.29333 8 8.83333ZM14 14.3333C14 14.7273 13.9224 15.1174 13.7716 15.4814C13.6209 15.8454 13.3999 16.1761 13.1213 16.4547C12.8427 16.7332 12.512 16.9542 12.1481 17.105C11.7841 17.2557 11.394 17.3333 11 17.3333C10.606 17.3333 10.2159 17.2557 9.85195 17.105C9.48797 16.9542 9.15726 16.7332 8.87868 16.4547C8.6001 16.1761 8.37912 15.8454 8.22836 15.4814C8.0776 15.1174 8 14.7273 8 14.3333C8 13.5377 8.31607 12.7746 8.87868 12.212C9.44129 11.6494 10.2044 11.3333 11 11.3333C11.7956 11.3333 12.5587 11.6494 13.1213 12.212C13.6839 12.7746 14 13.5377 14 14.3333ZM12.3333 14.3333C12.3333 13.9797 12.1929 13.6406 11.9428 13.3905C11.6928 13.1405 11.3536 13 11 13C10.6464 13 10.3072 13.1405 10.0572 13.3905C9.80714 13.6406 9.66667 13.9797 9.66667 14.3333C9.66667 14.687 9.80714 15.0261 10.0572 15.2761C10.3072 15.5262 10.6464 15.6667 11 15.6667C11.3536 15.6667 11.6928 15.5262 11.9428 15.2761C12.1929 15.0261 12.3333 14.687 12.3333 14.3333ZM11 24.6667C11.7956 24.6667 12.5587 24.3506 13.1213 23.788C13.6839 23.2254 14 22.4623 14 21.6667C14 20.871 13.6839 20.108 13.1213 19.5453C12.5587 18.9827 11.7956 18.6667 11 18.6667C10.2044 18.6667 9.44129 18.9827 8.87868 19.5453C8.31607 20.108 8 20.871 8 21.6667C8 22.4623 8.31607 23.2254 8.87868 23.788C9.44129 24.3506 10.2044 24.6667 11 24.6667ZM11 23C10.6464 23 10.3072 22.8595 10.0572 22.6095C9.80714 22.3594 9.66667 22.0203 9.66667 21.6667C9.66667 21.313 9.80714 20.9739 10.0572 20.7239C10.3072 20.4738 10.6464 20.3333 11 20.3333C11.3536 20.3333 11.6928 20.4738 11.9428 20.7239C12.1929 20.9739 12.3333 21.313 12.3333 21.6667C12.3333 22.0203 12.1929 22.3594 11.9428 22.6095C11.6928 22.8595 11.3536 23 11 23ZM30.6667 23.3333C30.6667 27.3833 27.3833 30.6667 23.3333 30.6667C19.2833 30.6667 16 27.3833 16 23.3333C16 19.2833 19.2833 16 23.3333 16C27.3833 16 30.6667 19.2833 30.6667 23.3333ZM24 18.6667C24 18.4899 23.9298 18.3203 23.8047 18.1953C23.6797 18.0702 23.5101 18 23.3333 18C23.1565 18 22.987 18.0702 22.8619 18.1953C22.7369 18.3203 22.6667 18.4899 22.6667 18.6667V22.6667H18.6667C18.4899 22.6667 18.3203 22.7369 18.1953 22.8619C18.0702 22.987 18 23.1565 18 23.3333C18 23.5101 18.0702 23.6797 18.1953 23.8047C18.3203 23.9298 18.4899 24 18.6667 24H22.6667V28C22.6667 28.1768 22.7369 28.3464 22.8619 28.4714C22.987 28.5964 23.1565 28.6667 23.3333 28.6667C23.5101 28.6667 23.6797 28.5964 23.8047 28.4714C23.9298 28.3464 24 28.1768 24 28V24H28C28.1768 24 28.3464 23.9298 28.4714 23.8047C28.5964 23.6797 28.6667 23.5101 28.6667 23.3333C28.6667 23.1565 28.5964 22.987 28.4714 22.8619C28.3464 22.7369 28.1768 22.6667 28 22.6667H24V18.6667Z" fill="#418ECB"/>
</svg>
