<svg width="32" height="32" viewBox="0 0 32 32" fill="none" xmlns="http://www.w3.org/2000/svg">
<path d="M22.6667 29.3334C20.8222 29.3334 19.2498 28.6832 17.9493 27.3827C16.6489 26.0823 15.9991 24.5103 16 22.6667C16 20.8223 16.6502 19.2498 17.9507 17.9494C19.2511 16.6489 20.8231 15.9992 22.6667 16C24.5111 16 26.0836 16.6503 27.384 17.9507C28.6844 19.2512 29.3342 20.8232 29.3333 22.6667C29.3333 24.5112 28.6831 26.0836 27.3827 27.384C26.0822 28.6845 24.5102 29.3343 22.6667 29.3334ZM24.9 25.8334L25.8333 24.9L23.3333 22.4V18.6667H22V22.9334L24.9 25.8334ZM6.66667 28C5.93334 28 5.30534 27.7387 4.78267 27.216C4.26 26.6934 3.99911 26.0658 4 25.3334V6.66671C4 5.93338 4.26134 5.30538 4.784 4.78271C5.30667 4.26004 5.93422 3.99915 6.66667 4.00004H12.2333C12.4778 3.22227 12.9556 2.58315 13.6667 2.08271C14.3778 1.58227 15.1556 1.33249 16 1.33338C16.8889 1.33338 17.6836 1.5836 18.384 2.08404C19.0844 2.58449 19.5564 3.22315 19.8 4.00004H25.3333C26.0667 4.00004 26.6947 4.26138 27.2173 4.78404C27.74 5.30671 28.0009 5.93427 28 6.66671V15C27.6 14.7112 27.1778 14.4667 26.7333 14.2667C26.2889 14.0667 25.8222 13.8889 25.3333 13.7334V6.66671H22.6667V10.6667H9.33334V6.66671H6.66667V25.3334H13.7333C13.8889 25.8223 14.0667 26.2889 14.2667 26.7334C14.4667 27.1778 14.7111 27.6 15 28H6.66667ZM16 6.66671C16.3778 6.66671 16.6947 6.53871 16.9507 6.28271C17.2067 6.02671 17.3342 5.71026 17.3333 5.33338C17.3333 4.9556 17.2053 4.63871 16.9493 4.38271C16.6933 4.12671 16.3769 3.99915 16 4.00004C15.6222 4.00004 15.3053 4.12804 15.0493 4.38404C14.7933 4.64004 14.6658 4.95649 14.6667 5.33338C14.6667 5.71115 14.7947 6.02804 15.0507 6.28404C15.3067 6.54004 15.6231 6.6676 16 6.66671Z" fill="#E67C00"/>
</svg>
