<svg width="48" height="48" viewBox="0 0 48 48" fill="none" xmlns="http://www.w3.org/2000/svg">
<path d="M43.42 40.58L40.58 43.42C40.2053 43.7925 39.6984 44.0016 39.17 44.0016C38.6416 44.0016 38.1347 43.7925 37.76 43.42L14 19.7C13.3496 19.8884 12.677 19.9893 12 20C10.7266 19.9991 9.47182 19.6942 8.33998 19.1107C7.20813 18.5272 6.23193 17.682 5.49252 16.6453C4.75312 15.6085 4.27188 14.4103 4.08881 13.1501C3.90575 11.8899 4.02615 10.6043 4.44 9.4L9.52 14.48L10.58 13.42L13.42 10.58L14.48 9.52L9.4 4.44C10.6043 4.02615 11.8899 3.90575 13.1501 4.08881C14.4103 4.27188 15.6085 4.75312 16.6453 5.49252C17.682 6.23193 18.5272 7.20814 19.1107 8.33998C19.6942 9.47182 19.9991 10.7266 20 12C19.9893 12.677 19.8884 13.3496 19.7 14L43.42 37.76C43.7925 38.1347 44.0016 38.6416 44.0016 39.17C44.0016 39.6984 43.7925 40.2053 43.42 40.58ZM4.58 37.76C4.2075 38.1347 3.99841 38.6416 3.99841 39.17C3.99841 39.6984 4.2075 40.2053 4.58 40.58L7.42 43.42C7.79472 43.7925 8.30163 44.0016 8.83 44.0016C9.35837 44.0016 9.86527 43.7925 10.24 43.42L21.18 32.5L15.52 26.84M40 4L32 8V12L27.66 16.34L31.66 20.34L36 16H40L44 8L40 4Z" fill="#418ECB"/>
</svg>
