<svg width="48" height="48" viewBox="0 0 48 48" fill="none" xmlns="http://www.w3.org/2000/svg">
<path d="M22.6 16.6L18.45 12.4C18.05 12 17.85 11.5334 17.85 11C17.85 10.4667 18.05 10 18.45 9.60005L22.606 5.40005C23.002 5.00005 23.4727 4.80005 24.018 4.80005C24.5647 4.80005 25.042 5.00005 25.45 5.40005L29.6 9.60005C30 10 30.2 10.4667 30.2 11C30.2 11.5334 30 12 29.6 12.4L25.444 16.6C25.048 17 24.5773 17.2 24.032 17.2C23.4853 17.2 23.008 17 22.6 16.6ZM4.00001 40C3.43334 40 2.95801 39.808 2.57401 39.424C2.19001 39.0401 1.99867 38.5654 2.00001 38V32C2.00001 30.8667 2.39201 29.9167 3.17601 29.15C3.96001 28.3834 4.90134 28 6.00001 28H12.55C13.2167 28 13.85 28.1667 14.45 28.5C15.05 28.8334 15.5333 29.2834 15.9 29.85C16.8667 31.15 18.0587 32.1667 19.476 32.9001C20.8933 33.6334 22.4013 34 24 34C25.6333 34 27.1587 33.6334 28.576 32.9001C29.9933 32.1667 31.168 31.15 32.1 29.85C32.5333 29.2834 33.042 28.8334 33.626 28.5C34.21 28.1667 34.818 28 35.45 28H42C43.1333 28 44.0833 28.3834 44.85 29.15C45.6167 29.9167 46 30.8667 46 32V38C46 38.5667 45.808 39.042 45.424 39.426C45.04 39.81 44.5653 40.0014 44 40H34C33.4333 40 32.958 39.808 32.574 39.424C32.19 39.0401 31.9987 38.5654 32 38V35.4501C30.8333 36.2834 29.5747 36.9167 28.224 37.35C26.8733 37.7834 25.4653 38 24 38C22.5667 38 21.1667 37.7747 19.8 37.3241C18.4333 36.8734 17.1667 36.2321 16 35.4001V38C16 38.5667 15.808 39.042 15.424 39.426C15.04 39.81 14.5653 40.0014 14 40H4.00001ZM8.00001 26C6.33334 26 4.91667 25.4167 3.75001 24.25C2.58334 23.0834 2.00001 21.6667 2.00001 20C2.00001 18.3 2.58334 16.8747 3.75001 15.724C4.91667 14.5734 6.33334 13.9987 8.00001 14C9.70001 14 11.1253 14.5754 12.276 15.726C13.4267 16.8767 14.0013 18.3014 14 20C14 21.6667 13.4247 23.0834 12.274 24.25C11.1233 25.4167 9.69867 26 8.00001 26ZM40 26C38.3333 26 36.9167 25.4167 35.75 24.25C34.5833 23.0834 34 21.6667 34 20C34 18.3 34.5833 16.8747 35.75 15.724C36.9167 14.5734 38.3333 13.9987 40 14C41.7 14 43.1253 14.5754 44.276 15.726C45.4267 16.8767 46.0013 18.3014 46 20C46 21.6667 45.4247 23.0834 44.274 24.25C43.1233 25.4167 41.6987 26 40 26Z" fill="#418ECB"/>
</svg>
