<svg width="32" height="32" viewBox="0 0 32 32" fill="none" xmlns="http://www.w3.org/2000/svg">
<path d="M22 9H26.096C26.3437 9.00024 26.5825 9.09244 26.7662 9.25871C26.9498 9.42499 27.0652 9.65351 27.09 9.9L27.7 16H25.688L25.188 11H22V14C22 14.2652 21.8946 14.5196 21.7071 14.7071C21.5196 14.8946 21.2652 15 21 15C20.7348 15 20.4804 14.8946 20.2929 14.7071C20.1053 14.5196 20 14.2652 20 14V11H12V14C12 14.2652 11.8946 14.5196 11.7071 14.7071C11.5196 14.8946 11.2652 15 11 15C10.7348 15 10.4804 14.8946 10.2929 14.7071C10.1054 14.5196 9.99999 14.2652 9.99999 14V11H6.80999L5.20999 27H16V29H4.10399C3.96432 28.9999 3.82623 28.9705 3.69861 28.9137C3.57099 28.8569 3.45667 28.7741 3.36303 28.6705C3.26939 28.5668 3.19849 28.4447 3.15491 28.312C3.11133 28.1793 3.09603 28.039 3.10999 27.9L4.90999 9.9C4.93477 9.65351 5.05015 9.42499 5.23379 9.25871C5.41744 9.09244 5.65626 9.00024 5.90399 9H9.99999V8.302C9.99999 4.834 12.672 2 16 2C19.328 2 22 4.834 22 8.302V9.002V9ZM20 9V8.302C20 5.914 18.196 4 16 4C13.804 4 12 5.914 12 8.302V9.002H20V9ZM26.294 24.12L24 21.828V29C24 29.2652 23.8946 29.5196 23.7071 29.7071C23.5196 29.8946 23.2652 30 23 30C22.7348 30 22.4804 29.8946 22.2929 29.7071C22.1053 29.5196 22 29.2652 22 29V21.828L19.708 24.12C19.6157 24.2155 19.5054 24.2917 19.3834 24.3441C19.2614 24.3965 19.1302 24.4241 18.9974 24.4253C18.8646 24.4264 18.7329 24.4011 18.61 24.3508C18.4871 24.3005 18.3755 24.2263 18.2816 24.1324C18.1877 24.0385 18.1135 23.9268 18.0632 23.804C18.0129 23.6811 17.9876 23.5494 17.9887 23.4166C17.9899 23.2838 18.0175 23.1526 18.0699 23.0306C18.1223 22.9086 18.1985 22.7982 18.294 22.706L22.294 18.706C22.4815 18.5185 22.7358 18.4132 23.001 18.4132C23.2662 18.4132 23.5205 18.5185 23.708 18.706L27.708 22.706C27.8035 22.7982 27.8797 22.9086 27.9321 23.0306C27.9845 23.1526 28.0121 23.2838 28.0132 23.4166C28.0144 23.5494 27.9891 23.6811 27.9388 23.804C27.8885 23.9268 27.8143 24.0385 27.7204 24.1324C27.6265 24.2263 27.5148 24.3005 27.3919 24.3508C27.2691 24.4011 27.1374 24.4264 27.0046 24.4253C26.8718 24.4241 26.7406 24.3965 26.6186 24.3441C26.4966 24.2917 26.3862 24.2155 26.294 24.12Z" fill="#FF8761"/>
</svg>
