<svg width="32" height="32" viewBox="0 0 32 32" fill="none" xmlns="http://www.w3.org/2000/svg">
<g clip-path="url(#clip0_860_739)">
<path fill-rule="evenodd" clip-rule="evenodd" d="M15.064 2.92666C15.5902 2.7298 16.1651 2.70413 16.7067 2.85333L16.936 2.92666L26.2693 6.42666C26.7426 6.60411 27.1556 6.9124 27.4604 7.3156C27.7652 7.71879 27.9491 8.20029 27.9907 8.70399L28 8.92399V16.0747C27.9999 18.2352 27.4166 20.3557 26.3115 22.2122C25.2064 24.0688 23.6205 25.5926 21.7213 26.6227L21.3667 26.808L16.8947 29.044C16.6484 29.1669 16.3795 29.2377 16.1046 29.252C15.8298 29.2662 15.5549 29.2235 15.2973 29.1267L15.1053 29.044L10.6333 26.808C8.70081 25.8417 7.06503 24.3716 5.89867 22.5528C4.73231 20.734 4.07864 18.6341 4.00667 16.4747L4 16.0747V8.92399C4.00001 8.41883 4.1435 7.92407 4.41378 7.49729C4.68405 7.07051 5.06999 6.72928 5.52667 6.51333L5.73067 6.42666L15.064 2.92666ZM20.5773 11.5053L14.4467 17.636L12.0893 15.2787C11.8391 15.0286 11.4999 14.8883 11.1462 14.8884C10.7925 14.8885 10.4533 15.0291 10.2033 15.2793C9.95332 15.5295 9.81294 15.8688 9.81306 16.2225C9.81319 16.5762 9.95381 16.9153 10.204 17.1653L13.4093 20.3707C13.5455 20.5069 13.7072 20.615 13.8852 20.6888C14.0632 20.7625 14.254 20.8005 14.4467 20.8005C14.6393 20.8005 14.8301 20.7625 15.0081 20.6888C15.1861 20.615 15.3478 20.5069 15.484 20.3707L22.4627 13.3907C22.59 13.2677 22.6916 13.1205 22.7615 12.9579C22.8313 12.7952 22.8681 12.6202 22.8697 12.4432C22.8712 12.2662 22.8375 12.0906 22.7704 11.9267C22.7034 11.7629 22.6044 11.614 22.4792 11.4888C22.354 11.3636 22.2051 11.2646 22.0413 11.1976C21.8774 11.1305 21.7018 11.0968 21.5248 11.0983C21.3478 11.0999 21.1728 11.1366 21.0101 11.2065C20.8475 11.2764 20.7003 11.378 20.5773 11.5053Z" fill="#418ECB"/>
</g>
<defs>
<clipPath id="clip0_860_739">
<rect width="32" height="32" fill="white"/>
</clipPath>
</defs>
</svg>
