<svg width="32" height="32" viewBox="0 0 32 32" fill="none" xmlns="http://www.w3.org/2000/svg">
<mask id="mask0_888_3142" style="mask-type:luminance" maskUnits="userSpaceOnUse" x="0" y="2" width="32" height="28">
<path d="M22.6666 27.3333L29.3333 16L22.6666 4.66663H9.33329L2.66663 16L9.33329 27.3333H22.6666Z" fill="#555555" stroke="white" stroke-width="4" stroke-linejoin="round"/>
<path d="M16 19.3333C16.884 19.3333 17.7319 18.9821 18.357 18.357C18.9821 17.7319 19.3333 16.884 19.3333 16C19.3333 15.1159 18.9821 14.2681 18.357 13.6429C17.7319 13.0178 16.884 12.6666 16 12.6666C15.1159 12.6666 14.2681 13.0178 13.6429 13.6429C13.0178 14.2681 12.6666 15.1159 12.6666 16C12.6666 16.884 13.0178 17.7319 13.6429 18.357C14.2681 18.9821 15.1159 19.3333 16 19.3333Z" fill="#555555" stroke="white" stroke-width="4" stroke-linejoin="round"/>
</mask>
<g mask="url(#mask0_888_3142)">
<path d="M0 0H32V32H0V0Z" fill="#418ECB"/>
</g>
</svg>
