<svg width="42" height="48" viewBox="0 0 42 48" fill="none" xmlns="http://www.w3.org/2000/svg">
<g clip-path="url(#clip0_860_654)">
<path fill-rule="evenodd" clip-rule="evenodd" d="M9.08111 4.54054C9.08111 3.97232 14.9397 0 20.7568 0C26.5739 0 32.4325 3.97362 32.4325 4.54054C32.4325 6.56432 32.2171 7.76303 32.0355 8.41557C31.9148 8.84368 31.514 9.08108 31.069 9.08108H10.4446C9.9996 9.08108 9.59873 8.84368 9.47808 8.41557C9.29646 7.76303 9.08111 6.56432 9.08111 4.54054ZM18.8108 3.89189C18.4668 3.89189 18.1368 4.02857 17.8935 4.27186C17.6502 4.51515 17.5135 4.84512 17.5135 5.18919C17.5135 5.53325 17.6502 5.86323 17.8935 6.10652C18.1368 6.34981 18.4668 6.48649 18.8108 6.48649H22.7027C23.0468 6.48649 23.3768 6.34981 23.6201 6.10652C23.8633 5.86323 24 5.53325 24 5.18919C24 4.84512 23.8633 4.51515 23.6201 4.27186C23.3768 4.02857 23.0468 3.89189 22.7027 3.89189H18.8108ZM10.4277 17.1477C6.10771 15.8115 7.19743 13.4244 8.845 11.6757H33.0292C34.3473 13.3596 35.0543 15.6311 31.0703 16.9907C31.2331 18.4359 31.0904 19.8992 30.6514 21.2857C30.2123 22.6722 29.4868 23.951 28.5218 25.0391C27.5567 26.1272 26.3738 27.0003 25.0497 27.6018C23.7255 28.2033 22.2898 28.5198 20.8354 28.5308C19.3811 28.5418 17.9407 28.2469 16.6077 27.6655C15.2746 27.084 14.0787 26.2288 13.0973 25.1554C12.116 24.082 11.3713 22.8143 10.9114 21.4346C10.4515 20.0549 10.2867 18.5939 10.4277 17.1464V17.1477ZM20.4039 18.1622C23.8314 18.1622 26.4882 17.9805 28.525 17.664C28.592 18.7217 28.4422 19.7819 28.0849 20.7797C27.7276 21.7775 27.1704 22.6918 26.4472 23.4666C25.7241 24.2414 24.8504 24.8604 23.8796 25.2856C22.9088 25.7108 21.8614 25.9333 20.8016 25.9394C19.7418 25.9455 18.6919 25.7351 17.7163 25.3211C16.7407 24.9071 15.8598 24.2983 15.1278 23.5318C14.3958 22.7654 13.8281 21.8576 13.4593 20.864C13.0906 19.8704 12.9286 18.8119 12.9834 17.7535C14.8813 18.0156 17.3138 18.1622 20.4039 18.1622ZM31.6761 37.1027C30.5027 35.272 28.8875 33.7658 26.9794 32.723C25.0712 31.6802 22.9313 31.1341 20.7568 31.1351C18.5813 31.1337 16.4405 31.6799 14.5316 32.7232C12.6227 33.7665 11.007 35.2735 9.83354 37.1053C9.39801 36.4345 8.72913 35.9492 7.95635 35.7431L5.44998 35.0724C4.61923 34.8497 3.73405 34.9661 2.98911 35.396C2.24417 35.8259 1.70049 36.534 1.47765 37.3648L0.470948 41.1243C0.360693 41.5358 0.332562 41.9649 0.388161 42.3872C0.44376 42.8095 0.582 43.2167 0.794987 43.5856C1.00797 43.9544 1.29153 44.2777 1.62948 44.537C1.96742 44.7963 2.35313 44.9865 2.76457 45.0967L5.26965 45.7687C5.69102 45.8822 6.131 45.9092 6.56309 45.8481C6.99518 45.787 7.41043 45.6391 7.78381 45.4132C7.78485 45.7573 7.92251 46.0868 8.16653 46.3294C8.41055 46.5719 8.74094 46.7076 9.085 46.7066C9.42907 46.7056 9.75863 46.5679 10.0012 46.3239C10.2438 46.0799 10.3794 45.7495 10.3784 45.4054V44.1081C10.3784 43.6138 10.4134 43.1274 10.4796 42.6512L17.2307 44.461C17.5441 45.1317 18.0423 45.6992 18.6669 46.0968C19.2914 46.4943 20.0164 46.7055 20.7568 46.7055C21.4971 46.7055 22.2221 46.4943 22.8467 46.0968C23.4713 45.6992 23.9695 45.1317 24.2828 44.461L31.034 42.6512C31.1001 43.1274 31.1352 43.6138 31.1352 44.1081V45.4054C31.1334 45.7495 31.2685 46.0801 31.5105 46.3246C31.7526 46.5691 32.0819 46.7075 32.426 46.7092C32.77 46.7109 33.1007 46.5759 33.3452 46.3338C33.5897 46.0917 33.728 45.7624 33.7298 45.4184C34.4562 45.8543 35.354 46.0061 36.2374 45.7687L38.7438 45.0979C39.1553 44.9877 39.541 44.7976 39.8789 44.5383C40.2168 44.279 40.5004 43.9557 40.7134 43.5869C40.9264 43.218 41.0646 42.8108 41.1202 42.3885C41.1758 41.9662 41.1477 41.5371 41.0374 41.1256L40.0294 37.3661C39.8066 36.5354 39.2629 35.8272 38.518 35.3973C37.773 34.9674 36.8878 34.851 36.0571 35.0737L33.5507 35.7444C32.7797 35.9497 32.112 36.4344 31.6761 37.1027ZM11.1607 40.1475C11.8615 38.4526 12.9984 36.9735 14.456 35.8604C15.9136 34.7473 17.6399 34.04 19.4595 33.8102V39.1408C18.8781 39.347 18.3539 39.6881 17.9299 40.1362C17.506 40.5843 17.1943 41.1266 17.0206 41.7185L11.1607 40.1488V40.1475ZM30.3529 40.1475C29.652 38.4527 28.515 36.9736 27.0574 35.8606C25.5998 34.7475 23.8736 34.0401 22.0541 33.8102V39.1408C23.2268 39.5559 24.1427 40.5159 24.493 41.7185L30.3529 40.1488V40.1475ZM20.7568 44.1081C21.1008 44.1081 21.4308 43.9714 21.6741 43.7281C21.9174 43.4849 22.0541 43.1549 22.0541 42.8108C22.0541 42.4667 21.9174 42.1368 21.6741 41.8935C21.4308 41.6502 21.1008 41.5135 20.7568 41.5135C20.4127 41.5135 20.0827 41.6502 19.8395 41.8935C19.5962 42.1368 19.4595 42.4667 19.4595 42.8108C19.4595 43.1549 19.5962 43.4849 19.8395 43.7281C20.0827 43.9714 20.4127 44.1081 20.7568 44.1081Z" fill="#418ECB"/>
</g>
<defs>
<clipPath id="clip0_860_654">
<rect width="41.5135" height="48" fill="white"/>
</clipPath>
</defs>
</svg>
