<svg width="48" height="48" viewBox="0 0 48 48" fill="none" xmlns="http://www.w3.org/2000/svg">
<path d="M36.872 41.874H11.124C9.79794 41.874 8.52617 41.3472 7.58849 40.4095C6.65081 39.4718 6.12402 38.2001 6.12402 36.874V11.126C6.12402 9.79989 6.65081 8.52812 7.58849 7.59044C8.52617 6.65276 9.79794 6.12598 11.124 6.12598H36.872C38.1981 6.12598 39.4699 6.65276 40.4076 7.59044C41.3452 8.52812 41.872 9.79989 41.872 11.126V36.874C41.872 38.2001 41.3452 39.4718 40.4076 40.4095C39.4699 41.3472 38.1981 41.874 36.872 41.874ZM11.124 8.12598C10.3284 8.12598 9.56531 8.44205 9.0027 9.00466C8.44009 9.56727 8.12402 10.3303 8.12402 11.126V36.874C8.12402 37.6696 8.44009 38.4327 9.0027 38.9953C9.56531 39.5579 10.3284 39.874 11.124 39.874H36.872C37.6677 39.874 38.4307 39.5579 38.9933 38.9953C39.556 38.4327 39.872 37.6696 39.872 36.874V11.126C39.872 10.3303 39.556 9.56727 38.9933 9.00466C38.4307 8.44205 37.6677 8.12598 36.872 8.12598H11.124Z" fill="#418ECB"/>
<path d="M13.0879 16.566C12.8237 16.5614 12.5713 16.4563 12.3819 16.272C12.1945 16.0845 12.0891 15.8302 12.0891 15.565C12.0891 15.2998 12.1945 15.0455 12.3819 14.858C12.5708 14.6732 12.8237 14.5686 13.0879 14.566H15.0999C15.3639 14.5694 15.6166 14.6739 15.8059 14.858C15.8991 14.9509 15.973 15.0612 16.0235 15.1827C16.0739 15.3042 16.0999 15.4345 16.0999 15.566C16.0999 15.8312 15.9946 16.0856 15.807 16.2731C15.6195 16.4607 15.3651 16.566 15.0999 16.566H13.0879ZM13.0879 25C12.8242 24.9952 12.572 24.8909 12.3819 24.708C12.2888 24.6151 12.2149 24.5048 12.1645 24.3833C12.1141 24.2618 12.0881 24.1315 12.0881 24C12.0881 23.8685 12.1141 23.7382 12.1645 23.6167C12.2149 23.4953 12.2888 23.3849 12.3819 23.292C12.5712 23.1079 12.8239 23.0034 13.0879 23H15.0999C15.3637 23.0044 15.616 23.1088 15.8059 23.292C15.899 23.3849 15.9729 23.4953 16.0233 23.6167C16.0738 23.7382 16.0997 23.8685 16.0997 24C16.0997 24.1315 16.0738 24.2618 16.0233 24.3833C15.9729 24.5048 15.899 24.6151 15.8059 24.708C15.6166 24.8921 15.3639 24.9966 15.0999 25H13.0879ZM13.0879 33.44C12.8237 33.4354 12.5713 33.3303 12.3819 33.146C12.1945 32.9585 12.0891 32.7042 12.0891 32.439C12.0891 32.1738 12.1945 31.9195 12.3819 31.732C12.5712 31.5479 12.8239 31.4434 13.0879 31.44H15.0999C15.3639 31.4434 15.6166 31.5479 15.8059 31.732C15.8991 31.8249 15.973 31.9352 16.0235 32.0567C16.0739 32.1782 16.0999 32.3085 16.0999 32.44C16.0999 32.7052 15.9946 32.9596 15.807 33.1471C15.6195 33.3347 15.3651 33.44 15.0999 33.44H13.0879ZM21.1079 16.562C20.8427 16.562 20.5884 16.4567 20.4008 16.2691C20.2133 16.0816 20.1079 15.8272 20.1079 15.562C20.1079 15.2968 20.2133 15.0424 20.4008 14.8549C20.5884 14.6674 20.8427 14.562 21.1079 14.562H34.9079C35.1731 14.562 35.4275 14.6674 35.615 14.8549C35.8026 15.0424 35.9079 15.2968 35.9079 15.562C35.9079 15.8272 35.8026 16.0816 35.615 16.2691C35.4275 16.4567 35.1731 16.562 34.9079 16.562H21.1079ZM21.1079 25C20.8427 25 20.5884 24.8947 20.4008 24.7071C20.2133 24.5196 20.1079 24.2652 20.1079 24C20.1079 23.7348 20.2133 23.4804 20.4008 23.2929C20.5884 23.1054 20.8427 23 21.1079 23H34.9079C35.1731 23 35.4275 23.1054 35.615 23.2929C35.8026 23.4804 35.9079 23.7348 35.9079 24C35.9079 24.2652 35.8026 24.5196 35.615 24.7071C35.4275 24.8947 35.1731 25 34.9079 25H21.1079ZM21.1079 33.436C20.8427 33.436 20.5884 33.3307 20.4008 33.1431C20.2133 32.9556 20.1079 32.7012 20.1079 32.436C20.1079 32.1708 20.2133 31.9164 20.4008 31.7289C20.5884 31.5414 20.8427 31.436 21.1079 31.436H34.9079C35.1731 31.436 35.4275 31.5414 35.615 31.7289C35.8026 31.9164 35.9079 32.1708 35.9079 32.436C35.9079 32.7012 35.8026 32.9556 35.615 33.1431C35.4275 33.3307 35.1731 33.436 34.9079 33.436H21.1079Z" fill="#418ECB"/>
</svg>
